
<svg width="106" height="27" viewBox="0 0 106 27" fill="none" xmlns="http://www.w3.org/2000/svg">
<path d="M0 6.90472H3.78571V26.4047H0V6.90472Z" fill="url(#paint0_linear_1353_544)"/>
<path d="M11.3571 6.90472H15.1429V26.4047H11.3571V6.90472Z" fill="url(#paint1_linear_1353_544)"/>
<path d="M22.7143 6.90472H26.5V26.4047H22.7143V6.90472Z" fill="url(#paint2_linear_1353_544)"/>
<path d="M34.0714 6.90472H37.8571V26.4047H34.0714V6.90472Z" fill="url(#paint3_linear_1353_544)"/>
<path d="M45.4286 0.404724H49.2143V26.4047H45.4286V0.404724Z" fill="url(#paint4_linear_1353_544)"/>
<path d="M56.7857 6.90472H60.5714V26.4047H56.7857V6.90472Z" fill="url(#paint5_linear_1353_544)"/>
<path d="M68.1429 6.90472H71.9286V26.4047H68.1429V6.90472Z" fill="url(#paint6_linear_1353_544)"/>
<path d="M79.5 6.90472H83.2857V26.4047H79.5V6.90472Z" fill="url(#paint7_linear_1353_544)"/>
<path d="M90.8571 6.90472H94.6429V26.4047H90.8571V6.90472Z" fill="url(#paint8_linear_1353_544)"/>
<path d="M102.214 0.404724H106V26.4047H102.214V0.404724Z" fill="url(#paint9_linear_1353_544)"/>
<path d="M56.7857 6.90472H60.5714V26.4047H56.7857V6.90472Z" fill="#297019"/>
<path d="M68.1429 6.90472H71.9286V26.4047H68.1429V6.90472Z" fill="#297019"/>
<path d="M79.5 6.90472H83.2857V26.4047H79.5V6.90472Z" fill="#297019"/>
<path d="M90.8571 6.90472H94.6429V26.4047H90.8571V6.90472Z" fill="#297019"/>
<path d="M102.214 0.404724H106V26.4047H102.214V0.404724Z" fill="#297019"/>
<defs>
<linearGradient id="paint0_linear_1353_544" x1="106" y1="14.2714" x2="-8.41889" y2="16.3463" gradientUnits="userSpaceOnUse">
<stop stop-color="#58AA46"/>
<stop offset="1" stop-color="#FFD964"/>
</linearGradient>
<linearGradient id="paint1_linear_1353_544" x1="106" y1="14.2714" x2="-8.41889" y2="16.3463" gradientUnits="userSpaceOnUse">
<stop stop-color="#58AA46"/>
<stop offset="1" stop-color="#FFD964"/>
</linearGradient>
<linearGradient id="paint2_linear_1353_544" x1="106" y1="14.2714" x2="-8.41889" y2="16.3463" gradientUnits="userSpaceOnUse">
<stop stop-color="#58AA46"/>
<stop offset="1" stop-color="#FFD964"/>
</linearGradient>
<linearGradient id="paint3_linear_1353_544" x1="106" y1="14.2714" x2="-8.41889" y2="16.3463" gradientUnits="userSpaceOnUse">
<stop stop-color="#58AA46"/>
<stop offset="1" stop-color="#FFD964"/>
</linearGradient>
<linearGradient id="paint4_linear_1353_544" x1="106" y1="14.2714" x2="-8.41889" y2="16.3463" gradientUnits="userSpaceOnUse">
<stop stop-color="#58AA46"/>
<stop offset="1" stop-color="#FFD964"/>
</linearGradient>
<linearGradient id="paint5_linear_1353_544" x1="106" y1="14.2714" x2="-8.41889" y2="16.3463" gradientUnits="userSpaceOnUse">
<stop stop-color="#58AA46"/>
<stop offset="1" stop-color="#FFD964"/>
</linearGradient>
<linearGradient id="paint6_linear_1353_544" x1="106" y1="14.2714" x2="-8.41889" y2="16.3463" gradientUnits="userSpaceOnUse">
<stop stop-color="#58AA46"/>
<stop offset="1" stop-color="#FFD964"/>
</linearGradient>
<linearGradient id="paint7_linear_1353_544" x1="106" y1="14.2714" x2="-8.41889" y2="16.3463" gradientUnits="userSpaceOnUse">
<stop stop-color="#58AA46"/>
<stop offset="1" stop-color="#FFD964"/>
</linearGradient>
<linearGradient id="paint8_linear_1353_544" x1="106" y1="14.2714" x2="-8.41889" y2="16.3463" gradientUnits="userSpaceOnUse">
<stop stop-color="#58AA46"/>
<stop offset="1" stop-color="#FFD964"/>
</linearGradient>
<linearGradient id="paint9_linear_1353_544" x1="106" y1="14.2714" x2="-8.41889" y2="16.3463" gradientUnits="userSpaceOnUse">
<stop stop-color="#58AA46"/>
<stop offset="1" stop-color="#FFD964"/>
</linearGradient>
</defs>
</svg>
